<svg xmlns="http://www.w3.org/2000/svg" xmlns:xlink="http://www.w3.org/1999/xlink" viewBox="0 0 2048 1024"><defs><style>.cls-1{isolation:isolate;}.cls-2{fill:#b8b8b8;}.cls-3{fill:#00b897;}.cls-4{fill:#76fcb2;}.cls-5{fill:url(#linear-gradient);}.cls-6{fill:#fff;mix-blend-mode:color;}.cls-7{fill:none;}</style><linearGradient id="linear-gradient" x1="129.99" y1="390.28" x2="339.85" y2="312.75" gradientTransform="matrix(1, 0, 0, -1, -13.78, 889.95)" gradientUnits="userSpaceOnUse"><stop offset="0" stop-color="#53e57a" stop-opacity="0"/><stop offset="1" stop-color="#00a977"/></linearGradient></defs><g class="cls-1"><g id="Layer_1" data-name="Layer 1"><path class="cls-2" d="M2026.24,604.45a55.1,55.1,0,0,1-29.16-7.29A24.42,24.42,0,0,1,1985.59,575V430.1h19.34a13,13,0,0,1,12.9,12.89V570.53a17.28,17.28,0,0,0,5,11.21,16.33,16.33,0,0,0,11.49,4.77H2038a2.81,2.81,0,0,1,2.8,2.8V605Z"/><path class="cls-2" d="M1611.11,604.45c-19.9,0-36.16-5.33-48.49-16a44,44,0,0,1-13.18-17.94c-2.8-6.73-3.92-16.26-3.92-29.15s1.4-22.71,3.92-29.15a46.16,46.16,0,0,1,12.9-17.38c12.33-10.65,28.59-16,48.49-16s36.16,5.33,48.49,16a44.06,44.06,0,0,1,12.89,17.38,80.28,80.28,0,0,1,3.93,29.43c0,12.89-1.4,22.7-3.93,29.15A44,44,0,0,1,1659,588.75C1647.55,599.12,1631,604.45,1611.11,604.45Zm0-107.08q-32.8,0-32.8,44.57c0,29.71,10.93,44.85,32.8,44.85s32.79-14.86,32.79-44.57S1632.69,497.37,1611.11,497.37Z"/><path class="cls-2" d="M1748.74,604.45a82.33,82.33,0,0,1-46.81-13.74,42.74,42.74,0,0,0-7.29-5,2.86,2.86,0,0,1-1.4-2.25V430.1h19.62A13,13,0,0,1,1725.75,443v44.85l5.89-3.36c7-3.65,16.26-5.33,28.31-5.33,21,0,37,6.45,47.37,18.5,9.25,10.93,14,25.51,14,43.45s-5.32,32.51-16,43.16C1793.3,598,1774,604.45,1748.74,604.45Zm3.08-107.08c-7.29,0-15.7,2.8-25,8.41l-1.4.56v72l1.4,1.12a46,46,0,0,0,25,7,30.91,30.91,0,0,0,27.47-14.86,54,54,0,0,0,8.41-30C1787.7,512.23,1775.65,497.37,1751.82,497.37Z"/><path class="cls-2" d="M1898.14,604.17c-36.44,0-59.43-23.83-59.43-62.79s22.43-62.51,58.87-62.51a59.82,59.82,0,0,1,35.59,10.65l2,1.4v-9.53h25.5a2.52,2.52,0,0,1,2.53,2.53h0v118h-28.59V591.27l-2,1.68C1924.77,600.24,1912.15,604.17,1898.14,604.17Zm6.44-104c-23,0-36.44,17.66-36.44,41.21s13.74,41.76,36.44,41.76c7.29,0,19.91-.56,30-10.65l.28-.28V511.67l-.28-.28c-6.73-7.85-17.1-11.22-30-11.22Z"/><path class="cls-2" d="M718.35,603.05V430.1H862.14V441a15.68,15.68,0,0,1-15.7,15.7h-92.5V503h92.5v26.63h-92.5v46.53h92.5a15.67,15.67,0,0,1,15.7,15.69h0v10.93Z"/><path class="cls-2" d="M1068.44,429.82h-33.91a20.75,20.75,0,0,0-16,7.57L977.91,489,937,437.67a20.75,20.75,0,0,0-16-7.57H887.09l68.67,86.33-68.67,86.33H921a20.77,20.77,0,0,0,16-7.56l40.93-51,41.2,51.58a20.78,20.78,0,0,0,16,7.57H1069l-69-86.34Z"/><path class="cls-2" d="M605.66,584.55l47.1-82.41V602.48h35.87V429.54H666.49a19,19,0,0,0-16.82,9.81L593.33,542.22,537,439.35a18.44,18.44,0,0,0-16.82-9.81H497.75V602.48h35.88V502.14l47.09,82.41Z"/><path class="cls-2" d="M1162.06,605a88.48,88.48,0,0,1-90.53-86.9v-1.4c0-27.19,8.41-49.89,23.82-65.31s38.12-23.54,65-23.54c31.68,0,56.34,10.93,74.28,32.23l-11.21,9.53a20.19,20.19,0,0,1-25,.56A57.59,57.59,0,0,0,1161.78,459c-35.31,0-56.06,21.3-56.06,57.18s21.59,58.58,56.06,58.58a61.13,61.13,0,0,0,36.72-11.21,20.23,20.23,0,0,1,25,.56l11.21,9.53C1217,594.36,1192.9,605,1162.06,605Z"/><path class="cls-2" d="M1382.94,604.73c-55.78,0-90.26-33.92-90.26-88.3s34.48-88.29,89.7-88.29c26.63,0,48.77,7.56,66.15,23.26l-8.41,9.25a19.22,19.22,0,0,1-23,4.21,79,79,0,0,0-34.76-8.13c-35.88,0-58,23-58,59.7s23.26,60,60.54,60c17.94,0,32-3.37,42-10.66l.56-.28V529.89H1388v-11.5a15.66,15.66,0,0,1,15.69-15.69h48.78a2.81,2.81,0,0,1,2.8,2.8v76.8C1438.16,597.16,1413.78,604.73,1382.94,604.73Z"/><path class="cls-2" d="M1519.17,604.45a55.09,55.09,0,0,1-29.15-7.29A25.23,25.23,0,0,1,1478.24,575V430.1h19.35A12.86,12.86,0,0,1,1510.48,443V570.53a17.28,17.28,0,0,0,5,11.21,16.35,16.35,0,0,0,11.5,4.77h3.64a2.81,2.81,0,0,1,2.8,2.8V605Z"/><path class="cls-3" d="M401.12,544.18,314.79,394.5c-19.06-31.11-65-31.67-83.25,1.4L140.72,551.75c-16.82,28.59,3.93,64.47,37.84,64.47H360.2C394.39,616.22,419.9,579.22,401.12,544.18Z"/><path class="cls-4" d="M276.39,556l-5.33-9.25c-5-8.68-16-27.18-16-27.18l-73.15-127a47.89,47.89,0,0,0-66.44-13.46,45.27,45.27,0,0,0-16.25,18.5L14.31,544.74a47.87,47.87,0,0,0,41.48,71.48H359.36C312.55,616.5,297.69,592.11,276.39,556Z"/><path class="cls-5" d="M276.39,556l-5.33-9.25c-5-8.68-16-27.18-16-27.18l-47.09-83L140.16,552c-16.82,28.59,3.93,64.47,37.84,64.47H359.36C312.27,616.22,297.69,592.11,276.39,556Z"/><rect class="cls-6" x="4" y="316.58" width="425" height="354.58"/><path class="cls-7" d="M401.12,544.18,314.79,394.5c-19.06-31.11-65-31.67-83.25,1.4l-24,41.14-25.64-44.5a47.89,47.89,0,0,0-66.44-13.46,45.27,45.27,0,0,0-16.25,18.5L14.31,544.74a47.87,47.87,0,0,0,41.48,71.48H173.1a46.25,46.25,0,0,0,4.9.28H359.36c-2.64,0-5.16-.12-7.6-.28h8.44C394.39,616.22,419.9,579.22,401.12,544.18Z"/></g></g></svg>